<?xml version="1.0" standalone="no"?>
<!DOCTYPE svg PUBLIC "-//W3C//DTD SVG 20010904//EN"
 "http://www.w3.org/TR/2001/REC-SVG-20010904/DTD/svg10.dtd">
<svg version="1.0" xmlns="http://www.w3.org/2000/svg"
 width="208.000000pt" height="208.000000pt" viewBox="0 0 208.000000 208.000000"
 preserveAspectRatio="xMidYMid meet">
<metadata>
Created by potrace 1.11, written by Peter Selinger 2001-2013
</metadata>
<g transform="translate(0.000000,208.000000) scale(0.100000,-0.100000)"
fill="#000000" stroke="none">
<path d="M1446 1922 c29 -24 48 -59 69 -124 11 -37 24 -60 36 -63 21 -7 26
-35 7 -35 -9 0 -9 -3 -3 -8 6 -4 10 -14 10 -22 -1 -8 3 -26 8 -40 4 -13 5 -21
1 -17 -4 4 -16 -1 -27 -10 -15 -13 -18 -14 -13 -3 4 8 -2 5 -13 -8 l-20 -23
-27 25 c-21 19 -32 23 -46 15 -10 -5 -18 -13 -18 -17 0 -17 -39 -10 -45 9 -7
21 -24 16 -63 -21 -19 -18 -23 -19 -28 -6 -3 9 -10 16 -16 16 -5 0 -17 7 -26
16 -14 15 -17 15 -29 -2 -7 -10 -13 -14 -13 -9 0 5 -6 0 -14 -10 -13 -19 -15
-18 -49 5 -20 13 -33 29 -29 34 3 6 -9 -1 -27 -13 -18 -13 -35 -30 -38 -38 -3
-7 -13 -13 -22 -11 -9 1 -22 -1 -28 -5 -8 -5 -13 -3 -13 3 0 6 -4 8 -10 5 -10
-6 -39 6 -38 15 2 15 -15 50 -22 45 -5 -3 -15 1 -23 9 -8 8 -17 12 -21 9 -3
-4 -6 -2 -6 4 0 8 -33 6 -128 -11 -12 -2 -20 -1 -17 4 3 4 -9 13 -25 20 -24
10 -33 10 -46 -1 -13 -10 -17 -10 -24 0 -4 8 -10 9 -13 4 -4 -6 -32 -11 -63
-12 -58 -2 -114 -29 -114 -54 0 -7 -10 -19 -22 -27 -23 -14 -28 -16 -48 -19
-6 0 -19 -10 -30 -21 -11 -11 -20 -15 -20 -9 0 14 -24 -11 -33 -34 -4 -10 -11
-16 -15 -13 -5 3 -9 0 -10 -7 -1 -7 -8 -39 -15 -72 -8 -33 -10 -61 -6 -63 5
-2 4 -12 -1 -22 -7 -13 -6 -20 2 -22 8 -3 8 -10 -1 -26 -9 -17 -9 -22 0 -22 9
0 9 -3 0 -14 -8 -10 -9 -16 -1 -21 7 -4 7 -12 0 -26 -7 -13 -7 -19 0 -19 5 0
9 -5 7 -11 -1 -6 6 -13 16 -14 28 -5 31 -12 8 -20 -18 -6 -26 -22 -22 -47 0
-5 -5 -8 -12 -8 -6 0 -4 -5 6 -11 9 -6 14 -15 11 -21 -4 -6 -2 -13 4 -17 6 -3
12 -12 14 -20 4 -17 46 -61 58 -61 6 0 10 -4 10 -10 0 -5 11 -10 25 -10 14 0
25 -4 25 -9 0 -4 32 -9 72 -10 39 -1 75 -4 80 -7 4 -3 8 -2 8 3 0 4 49 6 110
3 61 -3 110 -1 110 3 0 5 5 5 10 2 6 -3 10 -18 10 -32 0 -15 -3 -24 -6 -20
-11 11 -34 -21 -33 -45 0 -25 17 -71 18 -50 1 10 6 10 21 2 13 -7 20 -7 20 -1
0 7 9 7 25 1 17 -6 25 -6 25 1 0 6 4 8 9 5 9 -6 36 21 43 44 3 8 1 27 -3 43
-5 16 -4 27 2 27 6 0 7 5 3 11 -4 8 12 10 55 7 33 -1 61 -1 61 2 0 7 207 3
219 -4 5 -4 12 0 14 6 4 10 6 10 6 1 1 -7 8 -10 19 -6 9 3 14 3 10 -2 -4 -4
-3 -16 3 -27 9 -16 7 -20 -10 -25 -12 -3 -22 -8 -22 -12 -6 -29 -4 -68 4 -78
11 -15 93 -17 102 -3 4 6 10 8 14 6 4 -3 13 -1 21 4 10 6 15 32 17 82 1 40 3
78 3 83 0 6 5 3 10 -5 8 -12 10 -12 10 -1 0 8 7 11 20 8 11 -3 20 0 20 6 0 8
4 7 12 -1 20 -20 125 -11 112 9 -3 5 2 12 10 15 9 3 13 11 9 18 -3 6 -3 8 2 4
4 -4 26 3 49 14 22 12 44 21 49 20 4 -1 7 3 7 9 0 5 4 8 8 5 5 -3 16 4 25 15
10 11 23 17 29 13 7 -4 8 -3 4 4 -4 7 -1 12 6 12 30 2 136 162 129 198 -1 6 2
12 7 12 4 0 7 12 7 28 -1 15 1 32 4 37 8 16 10 35 3 35 -4 0 -7 11 -7 25 0 14
5 25 10 25 6 0 4 4 -2 8 -7 5 -14 20 -15 35 -1 15 -5 27 -9 27 -3 0 -6 6 -7
13 -3 40 -38 115 -66 140 -11 10 -14 17 -6 17 6 0 -2 14 -20 30 -18 17 -29 30
-25 30 4 0 -9 16 -29 36 -20 20 -36 39 -36 43 0 3 -14 12 -30 19 -18 8 -27 18
-23 25 3 7 3 9 -2 5 -4 -4 -24 4 -44 17 -19 14 -41 25 -47 25 -7 0 -14 4 -16
9 -1 5 -14 11 -28 13 -14 1 -27 6 -30 9 -3 3 -23 9 -45 12 -39 6 -39 6 -19
-11z"/>
<path d="M110 551 c0 -4 -14 -5 -31 -3 -23 3 -30 1 -25 -7 4 -7 0 -23 -8 -36
-9 -14 -13 -25 -9 -25 5 0 2 -4 -6 -9 -16 -11 -24 -41 -10 -41 5 0 5 -10 0
-23 -5 -13 -5 -30 -1 -37 5 -8 6 -19 2 -25 -10 -16 -11 -35 -1 -35 5 0 5 -10
0 -23 -5 -13 -5 -30 -1 -37 5 -8 6 -19 2 -25 -11 -18 -11 -35 1 -35 7 0 5 -5
-3 -10 -11 -7 -11 -10 -2 -10 7 0 11 -4 8 -9 -8 -12 21 -34 34 -26 6 3 8 11 4
16 -3 5 0 8 8 7 9 -2 14 12 16 45 2 26 7 45 13 42 5 -4 9 -3 9 2 0 4 43 7 96
6 82 -1 98 1 115 18 10 10 19 16 19 13 0 -3 11 8 25 24 14 17 25 37 25 45 0 9
6 19 13 23 6 4 8 3 4 -1 -4 -5 3 -15 15 -22 13 -7 19 -12 13 -13 -11 0 -11
-112 0 -129 3 -6 1 -11 -5 -11 -6 0 -5 -11 5 -30 9 -16 17 -30 18 -30 1 -1 18
-3 38 -6 l36 -5 0 37 c-1 34 3 39 31 51 18 7 32 9 32 4 0 -10 19 -9 38 2 7 5
12 3 12 -3 0 -7 6 -8 17 -1 10 5 26 5 39 1 12 -5 24 -7 27 -4 2 3 7 -2 10 -11
4 -8 1 -15 -5 -15 -6 0 -3 -9 7 -20 13 -15 21 -17 31 -9 9 7 15 5 22 -8 6 -10
14 -15 17 -11 4 4 17 3 29 -2 18 -6 22 -4 23 11 1 10 -3 19 -8 19 -6 0 -9 8
-8 18 1 9 0 19 -1 22 -7 19 -7 60 0 60 9 0 7 26 -3 36 -4 4 -2 13 4 21 8 8 8
13 1 13 -12 0 -11 18 2 39 6 9 5 12 -2 8 -6 -5 -8 0 -5 13 9 32 20 32 43 0 12
-16 16 -30 10 -30 -6 0 -9 -3 -7 -7 3 -5 7 -57 9 -116 3 -97 5 -108 21 -103 9
2 17 0 17 -4 0 -12 249 -10 256 1 3 5 10 6 16 3 15 -9 28 16 28 53 l0 32 -137
3 -138 3 -3 109 c-2 66 1 113 8 120 7 7 10 6 10 -2 0 -10 5 -10 20 -2 14 8 20
8 20 0 0 -8 6 -8 20 0 14 8 20 8 20 0 0 -8 6 -8 20 0 14 8 20 8 20 0 0 -8 6
-8 20 0 14 8 20 8 20 0 0 -8 6 -8 20 0 14 8 20 8 20 0 0 -7 6 -8 19 0 14 7 21
6 25 -3 3 -6 5 3 3 21 -2 17 1 32 7 32 6 0 6 3 1 9 -10 10 -155 20 -155 11 0
-3 -25 -3 -56 -1 -63 3 -94 -8 -138 -54 -16 -16 -25 -23 -21 -15 6 12 5 13 -6
3 -21 -20 -32 -15 -27 12 3 13 1 22 -3 19 -5 -3 -9 1 -9 8 0 7 -11 18 -25 25
-15 6 -25 7 -25 1 0 -5 -5 -6 -11 -2 -17 10 -171 5 -185 -6 -6 -6 -14 -7 -17
-3 -4 3 -7 1 -7 -6 0 -7 -4 -10 -9 -6 -5 3 -21 -6 -35 -20 -14 -14 -26 -23
-26 -20 0 3 -6 1 -12 -5 -68 -57 -67 -57 -70 -17 -1 14 -5 24 -9 22 -3 -3 -12
7 -19 20 -7 14 -17 25 -20 25 -4 0 -25 7 -46 17 -46 19 -73 23 -80 11 -3 -4
-14 -3 -25 2 -10 6 -19 9 -19 6 0 -3 -13 -1 -30 4 -16 5 -30 5 -30 1z m81 -91
c13 8 19 7 19 0 0 -8 6 -8 20 0 14 8 20 8 20 0 0 -7 6 -8 18 -1 12 6 21 5 30
-5 7 -8 10 -14 7 -14 -3 0 -1 -9 5 -20 8 -15 8 -20 -2 -21 -10 0 -10 -2 -1 -6
10 -3 10 -9 0 -24 -10 -16 -24 -19 -104 -19 -50 0 -95 5 -98 10 -3 6 0 10 7
11 10 0 10 2 0 6 -6 2 -9 9 -6 15 4 6 0 15 -7 20 -11 7 -11 11 -1 15 7 2 19
11 27 20 8 8 15 11 15 7 0 -5 6 -2 12 4 8 8 14 9 16 2 3 -7 10 -7 23 0z m353
-22 c-6 -10 -4 -10 8 0 14 11 22 11 47 -3 17 -8 31 -12 31 -8 0 11 92 3 104
-8 6 -6 6 -9 0 -9 -5 0 -8 -21 -5 -47 2 -27 0 -45 -4 -41 -5 4 -14 3 -22 -3
-10 -9 -13 -8 -13 1 0 10 -3 10 -15 0 -12 -10 -15 -10 -15 1 0 10 -3 10 -12 1
-8 -8 -15 -9 -25 -1 -10 9 -13 8 -13 -1 0 -10 -3 -10 -15 0 -12 10 -15 10 -15
0 0 -10 -3 -10 -15 0 -12 10 -15 10 -15 -1 0 -10 -3 -10 -12 -1 -8 8 -15 9
-25 0 -11 -8 -12 -7 -7 6 4 9 1 16 -6 16 -9 0 -10 3 -1 13 6 8 8 17 4 20 -3 4
0 7 7 7 7 0 11 3 7 6 -6 7 19 64 29 64 3 0 2 -6 -2 -12z"/>
<path d="M1334 538 c-3 -4 -9 -6 -14 -3 -5 3 -13 -3 -19 -12 -5 -10 -12 -17
-15 -15 -15 6 -17 1 -6 -13 10 -12 10 -15 0 -15 -10 0 -10 -3 0 -15 10 -12 10
-15 0 -15 -10 0 -10 -3 0 -15 10 -12 10 -15 0 -15 -10 0 -10 -3 0 -15 10 -12
10 -15 0 -15 -10 0 -10 -3 0 -15 10 -12 10 -15 0 -15 -10 0 -10 -3 0 -15 10
-12 10 -15 0 -15 -10 0 -10 -3 0 -15 10 -12 10 -15 0 -15 -10 0 -10 -3 0 -15
10 -12 10 -15 0 -15 -9 0 -10 -3 -1 -13 6 -8 8 -17 4 -20 -3 -4 -1 -7 6 -7 7
0 10 -4 7 -9 -8 -13 26 -50 49 -54 11 -1 26 -6 33 -10 6 -5 12 -5 12 -1 0 4 9
-1 19 -10 11 -10 24 -15 30 -12 5 3 12 0 14 -6 4 -10 6 -9 6 1 1 11 4 11 16 1
8 -7 15 -9 15 -4 0 5 36 8 81 6 61 -3 89 1 117 14 20 9 43 17 50 17 7 0 12 15
12 40 0 22 3 37 7 34 3 -4 12 -2 20 4 9 8 13 8 13 1 0 -7 12 -4 30 6 30 17 30
17 55 -12 14 -16 25 -26 25 -22 0 3 14 -8 31 -26 17 -18 28 -26 24 -18 -4 10
-1 9 8 -3 8 -9 20 -17 26 -17 7 0 10 -4 7 -9 -7 -11 37 -23 58 -15 15 6 19 54
5 54 -8 0 -50 37 -50 44 1 3 1 7 0 9 -5 16 -2 77 3 77 4 0 10 11 14 25 3 14 9
25 13 25 4 0 8 22 10 50 2 47 -9 81 -34 106 -11 12 -105 24 -105 14 0 -3 -31
-3 -70 0 -38 3 -70 3 -70 0 0 -3 -15 -4 -33 -2 -27 3 -37 -1 -50 -22 -9 -14
-13 -27 -9 -30 9 -6 7 -59 -3 -75 -3 -6 -1 -11 5 -11 8 0 7 -6 -1 -21 -6 -12
-7 -19 -2 -16 5 3 9 -3 9 -13 0 -10 -4 -16 -8 -14 -12 8 -9 -11 4 -24 9 -9 9
-12 -1 -12 -10 0 -11 -3 -3 -13 8 -9 6 -21 -8 -42 -11 -17 -20 -24 -20 -15 0
12 -2 13 -9 1 -7 -11 -9 -11 -13 0 -4 11 -10 11 -31 2 -15 -7 -27 -9 -27 -5 0
9 -53 7 -69 -3 -6 -3 -11 -2 -11 4 0 10 -18 10 -35 -1 -6 -4 -17 -3 -25 2 -7
4 -24 4 -37 -1 -20 -8 -23 -6 -23 18 0 14 3 24 6 20 3 -3 14 3 25 14 16 16 35
19 112 21 109 1 108 1 125 11 17 11 15 47 -3 47 -9 0 -18 7 -21 15 -4 8 -10
12 -15 9 -5 -3 -9 1 -9 8 0 9 -3 9 -10 -2 -5 -8 -10 -10 -10 -3 0 12 -17 12
-37 0 -8 -5 -13 -3 -13 3 0 7 -7 7 -22 -1 -16 -8 -23 -9 -26 -1 -2 7 -11 8
-28 2 -23 -9 -29 -3 -25 23 0 4 -4 7 -11 7 -6 0 -8 3 -5 7 4 3 2 12 -4 19 -6
7 -8 18 -4 25 6 8 10 8 15 -2 7 -10 11 -10 24 0 11 10 16 10 16 2 0 -9 5 -9
20 -1 14 8 20 8 20 0 0 -8 6 -8 20 0 14 8 20 8 20 0 0 -8 6 -8 20 0 11 6 20 7
20 2 0 -5 14 -7 30 -4 27 4 30 8 30 38 0 27 -5 37 -22 43 -13 5 -27 5 -32 0
-5 -4 -16 -5 -25 -1 -20 9 -42 9 -58 -1 -8 -5 -13 -3 -13 3 0 7 -6 8 -19 0
-14 -7 -22 -7 -26 0 -5 8 -11 8 -19 1 -7 -6 -15 -8 -19 -5 -9 10 -57 12 -63 2z
m477 -82 c16 9 59 12 59 4 0 -9 20 -8 35 2 6 4 17 3 25 -2 8 -5 21 -5 31 0 17
9 19 2 20 -63 0 -35 -31 -47 -114 -45 -42 2 -77 0 -77 -5 0 -4 -9 -2 -20 5
-16 10 -20 24 -20 61 0 39 3 48 15 44 8 -4 18 -1 22 5 5 9 8 9 11 0 2 -7 8 -9
13 -6z m-121 -230 c0 -3 -4 -8 -10 -11 -5 -3 -10 -1 -10 4 0 6 5 11 10 11 6 0
10 -2 10 -4z"/>
</g>
</svg>
